<?xml version="1.0" standalone="no"?>
<svg xmlns:xlink="http://www.w3.org/1999/xlink" id="wave" style="transform:rotate(0deg); transition: 0.3s" viewBox="0 0 1440 490" version="1.1" xmlns="http://www.w3.org/2000/svg"><defs><linearGradient id="sw-gradient-0" x1="0" x2="0" y1="1" y2="0"><stop stop-color="rgba(1.651, 1.602, 1.586, 1)" offset="0%"/><stop stop-color="rgba(245.267, 242.7, 237.027, 1)" offset="100%"/></linearGradient></defs><path style="transform:translate(0, 0px); opacity:1" fill="url(#sw-gradient-0)" d="M0,441L120,367.5C240,294,480,147,720,147C960,147,1200,294,1440,343C1680,392,1920,343,2160,269.5C2400,196,2640,98,2880,98C3120,98,3360,196,3600,236.8C3840,278,4080,261,4320,212.3C4560,163,4800,82,5040,81.7C5280,82,5520,163,5760,204.2C6000,245,6240,245,6480,245C6720,245,6960,245,7200,245C7440,245,7680,245,7920,245C8160,245,8400,245,8640,220.5C8880,196,9120,147,9360,163.3C9600,180,9840,261,10080,277.7C10320,294,10560,245,10800,261.3C11040,278,11280,359,11520,375.7C11760,392,12000,343,12240,318.5C12480,294,12720,294,12960,318.5C13200,343,13440,392,13680,416.5C13920,441,14160,441,14400,432.8C14640,425,14880,408,15120,400.2C15360,392,15600,392,15840,343C16080,294,16320,196,16560,196C16800,196,17040,294,17160,343L17280,392L17280,490L17160,490C17040,490,16800,490,16560,490C16320,490,16080,490,15840,490C15600,490,15360,490,15120,490C14880,490,14640,490,14400,490C14160,490,13920,490,13680,490C13440,490,13200,490,12960,490C12720,490,12480,490,12240,490C12000,490,11760,490,11520,490C11280,490,11040,490,10800,490C10560,490,10320,490,10080,490C9840,490,9600,490,9360,490C9120,490,8880,490,8640,490C8400,490,8160,490,7920,490C7680,490,7440,490,7200,490C6960,490,6720,490,6480,490C6240,490,6000,490,5760,490C5520,490,5280,490,5040,490C4800,490,4560,490,4320,490C4080,490,3840,490,3600,490C3360,490,3120,490,2880,490C2640,490,2400,490,2160,490C1920,490,1680,490,1440,490C1200,490,960,490,720,490C480,490,240,490,120,490L0,490Z"/></svg>