<?xml version="1.0" standalone="no"?>
<svg xmlns:xlink="http://www.w3.org/1999/xlink" id="wave" style="transform:rotate(0deg); transition: 0.3s" viewBox="0 0 1440 490" version="1.1" xmlns="http://www.w3.org/2000/svg"><defs><linearGradient id="sw-gradient-0" x1="0" x2="0" y1="1" y2="0"><stop stop-color="rgba(1.651, 1.602, 1.586, 1)" offset="0%"/><stop stop-color="rgba(245.267, 242.7, 237.027, 1)" offset="100%"/></linearGradient></defs><path style="transform:translate(0, 0px); opacity:1" fill="url(#sw-gradient-0)" d="M0,343L80,285.8C160,229,320,114,480,130.7C640,147,800,294,960,367.5C1120,441,1280,441,1440,375.7C1600,310,1760,180,1920,122.5C2080,65,2240,82,2400,138.8C2560,196,2720,294,2880,343C3040,392,3200,392,3360,400.2C3520,408,3680,425,3840,400.2C4000,376,4160,310,4320,245C4480,180,4640,114,4800,122.5C4960,131,5120,212,5280,236.8C5440,261,5600,229,5760,236.8C5920,245,6080,294,6240,269.5C6400,245,6560,147,6720,89.8C6880,33,7040,16,7200,81.7C7360,147,7520,294,7680,310.3C7840,327,8000,212,8160,204.2C8320,196,8480,294,8640,326.7C8800,359,8960,327,9120,318.5C9280,310,9440,327,9600,334.8C9760,343,9920,343,10080,285.8C10240,229,10400,114,10560,98C10720,82,10880,163,11040,163.3C11200,163,11360,82,11440,40.8L11520,0L11520,490L11440,490C11360,490,11200,490,11040,490C10880,490,10720,490,10560,490C10400,490,10240,490,10080,490C9920,490,9760,490,9600,490C9440,490,9280,490,9120,490C8960,490,8800,490,8640,490C8480,490,8320,490,8160,490C8000,490,7840,490,7680,490C7520,490,7360,490,7200,490C7040,490,6880,490,6720,490C6560,490,6400,490,6240,490C6080,490,5920,490,5760,490C5600,490,5440,490,5280,490C5120,490,4960,490,4800,490C4640,490,4480,490,4320,490C4160,490,4000,490,3840,490C3680,490,3520,490,3360,490C3200,490,3040,490,2880,490C2720,490,2560,490,2400,490C2240,490,2080,490,1920,490C1760,490,1600,490,1440,490C1280,490,1120,490,960,490C800,490,640,490,480,490C320,490,160,490,80,490L0,490Z"/></svg>