<?xml version="1.0" standalone="no"?>
<svg xmlns:xlink="http://www.w3.org/1999/xlink" id="wave" style="transform:rotate(0deg); transition: 0.3s" viewBox="0 0 1440 490" version="1.1" xmlns="http://www.w3.org/2000/svg"><defs><linearGradient id="sw-gradient-0" x1="0" x2="0" y1="1" y2="0"><stop stop-color="rgba(1.651, 1.602, 1.586, 1)" offset="0%"/><stop stop-color="rgba(245.267, 242.7, 237.027, 1)" offset="100%"/></linearGradient></defs><path style="transform:translate(0, 0px); opacity:1" fill="url(#sw-gradient-0)" d="M0,392L80,367.5C160,343,320,294,480,236.8C640,180,800,114,960,138.8C1120,163,1280,278,1440,285.8C1600,294,1760,196,1920,171.5C2080,147,2240,196,2400,212.3C2560,229,2720,212,2880,196C3040,180,3200,163,3360,179.7C3520,196,3680,245,3840,294C4000,343,4160,392,4320,359.3C4480,327,4640,212,4800,204.2C4960,196,5120,294,5280,294C5440,294,5600,196,5760,155.2C5920,114,6080,131,6240,163.3C6400,196,6560,245,6720,269.5C6880,294,7040,294,7200,318.5C7360,343,7520,392,7680,392C7840,392,8000,343,8160,294C8320,245,8480,196,8640,204.2C8800,212,8960,278,9120,269.5C9280,261,9440,180,9600,155.2C9760,131,9920,163,10080,147C10240,131,10400,65,10560,40.8C10720,16,10880,33,11040,81.7C11200,131,11360,212,11440,253.2L11520,294L11520,490L11440,490C11360,490,11200,490,11040,490C10880,490,10720,490,10560,490C10400,490,10240,490,10080,490C9920,490,9760,490,9600,490C9440,490,9280,490,9120,490C8960,490,8800,490,8640,490C8480,490,8320,490,8160,490C8000,490,7840,490,7680,490C7520,490,7360,490,7200,490C7040,490,6880,490,6720,490C6560,490,6400,490,6240,490C6080,490,5920,490,5760,490C5600,490,5440,490,5280,490C5120,490,4960,490,4800,490C4640,490,4480,490,4320,490C4160,490,4000,490,3840,490C3680,490,3520,490,3360,490C3200,490,3040,490,2880,490C2720,490,2560,490,2400,490C2240,490,2080,490,1920,490C1760,490,1600,490,1440,490C1280,490,1120,490,960,490C800,490,640,490,480,490C320,490,160,490,80,490L0,490Z"/></svg>